<svg version="1.2" xmlns="http://www.w3.org/2000/svg" viewBox="0 0 505 488" width="505" height="488">
	<title>isotipe_transparent</title>
	<style>
		.s0 { fill: #000000 } 
	</style>
	<g>
		<path fill-rule="evenodd" class="s0" d="m359.5 21c42.5 11.1 70.2 23.6 90 40.3 7 6 18.8 18.9 24.4 26.8 4.1 5.8 12 20.2 13.9 25.4 0.6 1.6 2 5.5 3.1 8.6 6.5 18 9.2 35.7 9.1 61 0 41.9-10.5 83.4-32.7 128.8-22.7 46.4-54.6 87.1-93.3 119.2-14.3 11.9-25.5 19.4-43.6 29.3-21.9 11.9-34.9 16.6-63.9 22.8-8.2 1.7-44.6 1.7-54.5 0-30-5.5-53.7-15.8-80.5-35.2-29.2-21.2-62.7-55.5-83.6-85.7-25.7-37-38.1-69.4-39.6-102.9-0.6-13.5-0.5-14.5 2.6-26.5 17.5-67.6 47.6-119.6 91.1-157.2 6.3-5.4 14.3-11.9 17.7-14.3 17.3-12.4 42.7-25.3 62.8-31.9 28-9.1 50.2-14.3 73.5-17 30.7-3.6 69.3-0.4 103.5 8.5zm-130.7 97.3l-50.8-0.4v240.2l55.8-0.4c63-0.4 61.3-0.2 78.2-8.4 7.6-3.7 10.9-6 16.6-11.8 12.4-12.5 17.6-26.4 17.7-46.5 0.1-12.7-1.5-20.6-6-30-3.2-6.6-16.6-20.4-23.5-24l-4.6-2.4 8.2-8c13.1-12.9 18.1-24.7 18-42.6-0.1-12.3-1.7-19.6-6.6-29.8-7.9-16.6-22.5-27.2-46.8-34-4.5-1.2-14.6-1.6-56.2-1.9z"/>
		<path class="s0" d="m218 185v34h20.3c32.2 0 41.6-1.9 49.9-10.2 6.6-6.6 8.3-11.5 8.3-23.8 0-12.3-1.3-15.9-8.5-23-8.4-8.5-20-11-51.7-11h-18.3z"/>
		<path class="s0" d="m223.3 252.7l-5.3 0.4v34.5 34.4h27.3c20.4 0 28.5-0.4 32.6-1.5 18.8-5 27.9-16.7 26.9-34.9-0.5-9.1-3.4-15.9-9.2-21.4-3.8-3.7-13.5-8.7-19.6-10.2-4.6-1.1-43.4-2.1-52.7-1.3z"/>
	</g>
</svg>