<?xml version="1.0" standalone="no"?>
<!DOCTYPE svg PUBLIC "-//W3C//DTD SVG 20010904//EN"
 "http://www.w3.org/TR/2001/REC-SVG-20010904/DTD/svg10.dtd">
<svg version="1.0" xmlns="http://www.w3.org/2000/svg"
 width="800.000000pt" height="800.000000pt" viewBox="0 0 800.000000 800.000000"
 preserveAspectRatio="xMidYMid meet">

<g transform="translate(0.000000,800.000000) scale(0.100000,-0.100000)"
fill="#000000" stroke="none">
<path d="M3900 6405 c-233 -27 -455 -79 -735 -170 -201 -66 -455 -195 -628
-319 -34 -24 -114 -89 -177 -143 -435 -376 -736 -896 -911 -1572 -31 -120 -32
-130 -26 -265 15 -335 139 -659 396 -1029 209 -302 544 -645 836 -857 268
-194 505 -297 805 -352 99 -17 463 -17 545 0 290 62 420 109 639 228 181 99
293 174 436 293 387 321 706 728 933 1192 222 454 327 869 327 1288 1 253 -26
430 -91 610 -11 31 -25 70 -31 86 -19 52 -98 196 -139 254 -56 79 -174 208
-244 268 -198 167 -475 292 -900 403 -342 89 -728 121 -1035 85z m290 -1077
c243 -68 389 -174 468 -340 49 -102 65 -175 66 -298 1 -179 -49 -297 -180
-426 l-82 -80 46 -24 c69 -36 203 -174 235 -240 45 -94 61 -173 60 -300 -1
-201 -53 -340 -177 -465 -57 -58 -90 -81 -166 -118 -169 -82 -152 -80 -782
-84 l-558 -4 0 1201 0 1201 508 -4 c416 -3 517 -7 562 -19z"/>
<path d="M3520 4680 l0 -340 203 0 c322 0 416 19 499 102 66 66 83 115 83 238
0 123 -13 159 -85 230 -84 85 -200 110 -517 110 l-183 0 0 -340z"/>
<path d="M3573 4003 l-53 -4 0 -345 0 -344 273 0 c204 0 285 4 326 15 188 50
279 167 269 349 -5 91 -34 159 -92 214 -38 37 -135 87 -196 102 -46 11 -434
21 -527 13z"/>
</g>
</svg>
